<svg width="184" height="44" viewBox="0 0 184 44" fill="none" xmlns="http://www.w3.org/2000/svg">
<path d="M3.22466 38.0448L0 43.9621V11.7207C0 5.23448 5.36149 0 12.0051 0H44.9899C35.6267 2.84483 25.875 9.25517 19.4257 16.5759C12.3159 24.5793 8.31419 30.0793 3.22466 38.0448Z" fill="white"/>
<path d="M45.0382 0C45.0382 0 30.6602 6.55642 26.2691 16.41C23.9375 21.6779 23.3546 28.0069 19.1189 31.9862C16.2044 34.7149 12.1242 35.7382 8.5491 37.5194C6.21753 38.6942 1.86526 41.4987 0 44H33.0306C39.6756 44 45.0382 38.77 45.0382 32.2894V0ZM61.709 23.0043V14.6667C61.709 14.4772 61.8644 14.3256 62.0587 14.3256H67.4602C68.4705 14.3256 69.3254 14.7425 69.3254 16.1447V22.739C69.3254 23.7623 68.4705 24.5581 67.4602 24.5581H63.2245C62.4084 24.4444 61.7478 23.8002 61.709 23.0043ZM59.9603 11.7864C59.3774 11.7864 58.9499 12.2033 58.9499 12.7338V34.5633H61.3204C61.5147 34.5633 61.6701 34.4117 61.6701 34.2222V26.112C62.0587 26.6047 62.8359 27.0973 63.8074 27.0973H67.4213C69.9472 27.0973 72.0068 25.354 72.0068 22.7769V16.1068C72.0068 13.0749 69.9472 11.7864 67.4213 11.7864H59.9603ZM75.8927 11.7864V26.7562C75.8927 26.9457 76.0481 27.0973 76.2424 27.0973H78.6129V12.0896C78.6129 11.9001 78.4574 11.7864 78.2631 11.7864H75.8927ZM75.8927 4.92679V7.42808C75.8927 7.61757 76.0481 7.76916 76.2424 7.76916H78.6129V5.26787C78.6129 5.07838 78.4574 4.92679 78.2631 4.92679H75.8927ZM85.2967 17.7743V16.1068C85.2967 14.8941 86.1128 14.2877 87.162 14.2877H91.4754C92.7189 14.2877 93.3018 14.8562 93.3018 16.1068V17.7743C93.3018 17.9638 93.1464 18.1154 92.9521 18.1154H85.6465C85.4133 18.0775 85.2967 17.9259 85.2967 17.7743ZM87.162 11.7864C84.6361 11.7864 82.5766 13.3023 82.5766 16.1447V22.6253C82.5766 25.0887 84.5973 27.0973 87.162 27.0973H95.2836V24.8992C95.2836 24.7097 95.1282 24.5581 94.9339 24.5581H87.162C86.1128 24.5581 85.2967 23.7623 85.2967 22.739V20.0103C85.5687 20.3893 86.0351 20.5788 86.5402 20.5788H95.1282C95.8665 20.5788 95.9442 20.1619 95.9442 19.6314V16.1068C95.9442 13.2644 93.9235 11.7485 91.3588 11.7485H87.162V11.7864ZM102.239 22.739V16.1447C102.239 15.1214 103.056 14.3256 104.105 14.3256H108.34C109.118 14.4014 109.778 15.0457 109.856 15.8794V24.2171C109.856 24.4065 109.701 24.5202 109.506 24.5202H104.105C103.056 24.5581 102.239 23.7623 102.239 22.739ZM110.167 4.13092C109.973 4.13092 109.817 4.28252 109.817 4.47201V12.7717C109.429 12.2412 108.651 11.7864 107.641 11.7864H103.988C101.462 11.7864 99.4805 13.7571 99.4805 16.2584V22.6253C99.4805 25.0887 101.501 27.0973 104.066 27.0973H111.527C112.11 27.0973 112.537 26.6805 112.537 26.112V4.13092H110.167ZM120.542 23.0043V14.6667C120.542 14.4772 120.698 14.3256 120.892 14.3256H126.255C127.265 14.3256 128.12 14.7425 128.12 16.1447V22.739C128.12 23.7623 127.265 24.5581 126.255 24.5581H122.019C121.203 24.4444 120.581 23.8002 120.542 23.0043ZM118.794 11.7864C118.211 11.7864 117.783 12.2033 117.783 12.7338V34.5633H120.154C120.348 34.5633 120.503 34.4117 120.503 34.2222V26.112C120.892 26.6047 121.669 27.0973 122.641 27.0973H126.255C128.781 27.0973 130.84 25.354 130.84 22.7769V16.1068C130.84 13.0749 128.781 11.7864 126.255 11.7864H118.794ZM134.726 11.7864V26.7562C134.726 26.9457 134.882 27.0973 135.076 27.0973H137.446V12.0896C137.446 11.9001 137.291 11.7864 137.097 11.7864H134.726ZM134.726 4.92679V7.42808C134.726 7.61757 134.882 7.76916 135.076 7.76916H137.446V5.26787C137.446 5.07838 137.291 4.92679 137.097 4.92679H134.726ZM144.208 23.0043V14.6667C144.208 14.4772 144.363 14.3256 144.558 14.3256H149.959C150.969 14.3256 151.824 14.7425 151.824 16.1447V22.739C151.824 23.7623 150.969 24.5581 149.959 24.5581H145.723C144.907 24.4444 144.286 23.8002 144.208 23.0043ZM142.498 11.7864C141.915 11.7864 141.488 12.2033 141.488 12.7338V34.5633H143.858C144.052 34.5633 144.208 34.4117 144.208 34.2222V26.112C144.596 26.6047 145.374 27.0973 146.345 27.0973H149.959C152.485 27.0973 154.544 25.354 154.544 22.7769V16.1068C154.544 13.0749 152.485 11.7864 149.959 11.7864H142.498ZM161.034 17.7743V16.1068C161.034 14.8941 161.85 14.2877 162.899 14.2877H167.213C168.417 14.2877 169.039 14.8562 169.039 16.1068V17.7743C169.039 17.9638 168.884 18.1154 168.689 18.1154H161.384C161.151 18.0775 161.034 17.9259 161.034 17.7743ZM162.899 11.7864C160.373 11.7864 158.314 13.3023 158.314 16.1447V22.6253C158.314 25.0887 160.335 27.0973 162.899 27.0973H171.021V24.8992C171.021 24.7097 170.865 24.5581 170.671 24.5581H162.899C161.85 24.5581 161.034 23.7623 161.034 22.739V20.0103C161.306 20.3893 161.772 20.5788 162.239 20.5788H170.827C171.565 20.5788 171.643 20.1619 171.643 19.6314V16.1068C171.643 13.2644 169.622 11.7485 167.057 11.7485H162.899V11.7864ZM180.347 11.7864C179.376 11.7864 178.599 12.2412 178.21 12.7717V12.0896C178.21 11.9001 178.054 11.7864 177.86 11.7864H175.49V26.7562C175.49 26.9457 175.645 27.0973 175.839 27.0973H178.21V15.7278C178.288 15.0078 178.871 14.3635 179.725 14.3635H183.65C183.845 14.3635 184 14.2119 184 14.0224V11.8243H180.347V11.7864Z" fill="white"/>
</svg>
